<svg id="XMLID_3661_" xmlns="http://www.w3.org/2000/svg" width="37.059" height="42" viewBox="0 0 37.059 42">
  <path id="XMLID_3671_" d="M140.488,352.412l1.747-1.747v-3.918L140.488,345H121.747L120,346.747v3.918l1.747,1.747Z" transform="translate(-112.588 -316.588)" fill="#ff9e37"/>
  <path id="XMLID_3666_" d="M67.059,0H30V19.765H67.059ZM41.118,16.059H38.647V7.984a4.912,4.912,0,0,1-2.471.663V6.176a2.473,2.473,0,0,0,2.471-2.471h2.471Zm9.882,0H43.588V3.706H51Zm8.073-2.683-1.747-1.747-1.747,1.747-1.747-1.747,1.747-1.747L53.832,8.135l1.747-1.747,1.747,1.747,1.747-1.747L60.82,8.135,59.073,9.882l1.747,1.747Z" transform="translate(-30)" fill="#ff9e37"/>
  <path id="XMLID_3665_" d="M225,75h2.471v7.412H225Z" transform="translate(-208.941 -68.824)" fill="#ff9e37"/>
  <path id="XMLID_3662_" d="M30,289.765H67.059V270H30Zm8.135-16.059H58.923l3.194,3.194v5.964l-3.194,3.194H38.135l-3.194-3.194V276.9Z" transform="translate(-30 -247.765)" fill="#0b5d98"/>
</svg>
