<svg xmlns="http://www.w3.org/2000/svg" width="52.164" height="35.659" viewBox="0 0 52.164 35.659">
  <g id="baccarat" transform="translate(-0.001 -81)">
    <path id="Path_127" data-name="Path 127" d="M45.134,107.49A19.116,19.116,0,0,0,62.047,97.145v-8.5a1.527,1.527,0,0,1,.448-1.081L69.055,81H21.213l6.561,6.561a1.528,1.528,0,0,1,.448,1.081v8.5A19.116,19.116,0,0,0,45.134,107.49Zm0-3.057a1.528,1.528,0,1,1,1.528-1.528A1.528,1.528,0,0,1,45.134,104.433Zm6.113-1.638a1.528,1.528,0,1,1,1.528-1.528A1.528,1.528,0,0,1,51.247,102.8ZM57.36,89.151a1.528,1.528,0,1,1-1.528,1.528A1.528,1.528,0,0,1,57.36,89.151Zm-1.638,6.113a1.528,1.528,0,1,1-1.528,1.528A1.528,1.528,0,0,1,55.722,95.264Zm-16.7-8.151H51.247a1.528,1.528,0,0,1,0,3.057H39.021a1.528,1.528,0,0,1,0-3.057Zm0,12.626a1.528,1.528,0,1,1-1.528,1.528A1.528,1.528,0,0,1,39.021,99.739Zm-2.947-2.947a1.528,1.528,0,1,1-1.528-1.528A1.528,1.528,0,0,1,36.074,96.792Zm-3.166-7.641a1.528,1.528,0,1,1-1.528,1.528A1.528,1.528,0,0,1,32.908,89.151Z" transform="translate(-19.051 0)" fill="#0b5d98"/>
    <path id="Path_128" data-name="Path 128" d="M46.052,108.325v8.231a1.529,1.529,0,0,1-.155.671,22.054,22.054,0,0,1-39.628,0,1.528,1.528,0,0,1-.155-.671v-8.231L0,102.212V117.88a1.528,1.528,0,0,0,.128.613l.149.34a28.167,28.167,0,0,0,51.61,0l.149-.34a1.527,1.527,0,0,0,.128-.613V102.212Z" transform="translate(0 -19.051)" fill="#ff9e37"/>
  </g>
</svg>
