<svg xmlns="http://www.w3.org/2000/svg" width="134.448" height="3445.012" viewBox="0 0 134.448 3445.012">
  <g id="Group_99" data-name="Group 99" transform="translate(0.5 -449.988)">
    <path id="Path_158" data-name="Path 158" d="M65.417,721.707c-6.027,15.447-12.1,31.914-18.057,49.662A1126.693,1126.693,0,0,0,0,973.5V16.38A752.663,752.663,0,0,0,34.358,225.42c36.3,114.96,79.013,150.931,94.7,233.978C147.325,556.112,107.273,614.648,65.417,721.707Z" transform="translate(0 433.62)" fill="#aaa" stroke="rgba(0,0,0,0)" stroke-width="1" opacity="0.05"/>
    <path id="Path_159" data-name="Path 159" d="M78.918,689.757C78.918,891.229,0,867.1,0,1197.623V135.67C0,308,42.9,417.886,65.417,544.473,73.461,589.579,78.918,636.821,78.918,689.757Z" transform="translate(0 597.377)" fill="#aaa" stroke="rgba(0,0,0,0)" stroke-width="1" opacity="0.05"/>
  </g>
</svg>
