<svg xmlns="http://www.w3.org/2000/svg" xmlns:xlink="http://www.w3.org/1999/xlink" width="252" height="305" viewBox="0 0 252 305">
  <defs>
    <clipPath id="clip-path">
      <rect id="Rectangle_145" data-name="Rectangle 145" width="252" height="305" rx="10" transform="translate(0 80)" fill="#3d3434"/>
    </clipPath>
  </defs>
  <g id="Group_167" data-name="Group 167" transform="translate(13819 13313)" opacity="0.7">
    <g id="Mask_Group_37" data-name="Mask Group 37" transform="translate(-13819 -13393)" clip-path="url(#clip-path)">
      <g id="Group_165" data-name="Group 165" transform="translate(71.342 170.137)">
        <path id="Path_197" data-name="Path 197" d="M969.828-652.794c-53.634-78.757-147.591-91.372-204.51-83.186s-120.05,4.443-168.744-59.238-136.5-69.657-184.647-18.379c-52.077,55.46-122.953,190.229-28.408,346.945C443.758-366.8,535.787-301.3,615.631-267.256s146.5,46.648,186.265,12.682,16.624-72.742,8.488-90.154-20.638-68.78,70.754-87.17C989.978-453.8,1029.823-564.7,969.828-652.794Z" transform="translate(-641.452 740.608)" fill="#aaa" opacity="0.1"/>
        <path id="Path_198" data-name="Path 198" d="M424.384,74.807C351.584,21.172,265.723,1.2,197.869.08S77.977,9.292,59.017,44.983s9.129,56.591,20.106,66.629,35.013,42.983-25.944,82.536c-72.595,47.1-69.2,137.579,0,182.914,61.863,40.531,133.712,22.306,172.629,0s85.817-37.922,139.7-6.693,119.34,10.062,139.338-40.379C526.477,275.435,538.644,158.985,424.384,74.807Z" transform="translate(-91.037 475.929) rotate(-131)" fill="#aaa" opacity="0.1"/>
      </g>
      <g id="Group_166" data-name="Group 166">
        <path id="Path_199" data-name="Path 199" d="M673.6,118.737C558.047,33.606,421.766,1.9,314.065.127S123.768,14.748,93.674,71.4s14.49,89.824,31.913,105.757,55.574,68.224-41.179,131c-115.225,74.761-109.833,218.37,0,290.327,98.191,64.333,212.233,35.405,274,0S494.625,538.3,580.152,587.863s189.421,15.971,221.163-64.092C835.645,437.181,854.957,252.348,673.6,118.737Z" transform="matrix(-0.875, 0.485, -0.485, -0.875, 2373, 500.461)" fill="#3d3434" opacity="0.04"/>
        <path id="Path_200" data-name="Path 200" d="M673.6,118.737C558.047,33.606,421.766,1.9,314.065.127S123.768,14.748,93.674,71.4s14.49,89.824,31.913,105.757,55.574,68.224-41.179,131c-115.225,74.761-109.833,218.37,0,290.327,98.191,64.333,212.233,35.405,274,0S494.625,538.3,580.152,587.863s189.421,15.971,221.163-64.092C835.645,437.181,854.957,252.348,673.6,118.737Z" transform="translate(1872.176 39.046) rotate(45)" fill="#3d3434" opacity="0.04"/>
      </g>
    </g>
  </g>
</svg>
