<svg xmlns="http://www.w3.org/2000/svg" width="42.674" height="44.322" viewBox="0 0 42.674 44.322">
  <g id="bingo" transform="translate(-9.521 0)">
    <path id="Path_129" data-name="Path 129" d="M179.929,371.986a3.46,3.46,0,0,0-3,5.194h5.994a3.46,3.46,0,0,0-3-5.194Z" transform="translate(-152.493 -339.784)" fill="#ff9e37"/>
    <path id="Path_130" data-name="Path 130" d="M50.467,21.724v-7.7H45.351v-1.3a3.893,3.893,0,0,0-5.674-3.465,12.722,12.722,0,0,0-24.482,0,3.893,3.893,0,0,0-5.674,3.465V37.4h7.792V20.413A12.77,12.77,0,0,0,23.54,24.83v5.06h7.792V24.83a12.768,12.768,0,0,0,6.228-4.417V37.4h7.792V16.617h2.519v7.7h4.325v-2.6ZM26.137,22.761a10.139,10.139,0,0,1-7.222-4.579,18.5,18.5,0,0,0,7.222,1.785Zm0-5.394c-4.159-.258-7.257-1.729-8.372-3.348h8.372Zm0-5.945H17.765c1.116-1.619,4.213-3.09,8.372-3.348Zm0-5.948a18.5,18.5,0,0,0-7.222,1.785A10.139,10.139,0,0,1,26.137,2.68Zm2.6-2.794a10.139,10.139,0,0,1,7.222,4.579,18.5,18.5,0,0,0-7.222-1.785Zm0,20.081V19.967a18.5,18.5,0,0,0,7.222-1.785A10.139,10.139,0,0,1,28.735,22.761Zm0-5.394V14.019h8.372C35.991,15.638,32.894,17.109,28.735,17.367Zm0-5.945V8.074c4.159.258,7.257,1.729,8.372,3.348H28.735Z" transform="translate(0 0)" fill="#0b5d98"/>
    <path id="Path_131" data-name="Path 131" d="M9.521,461.987h35.83v4.329H9.521Z" transform="translate(0 -421.993)" fill="#ff9e37"/>
  </g>
</svg>
