<svg xmlns="http://www.w3.org/2000/svg" width="54.507" height="47" viewBox="0 0 54.507 47">
  <g id="Group_172" data-name="Group 172" transform="translate(-544.305 328.92)">
    <path id="Path_119" data-name="Path 119" d="M554.721-317.946a4.615,4.615,0,0,1,3.5-5.5l11.63-2.581-.829-1.628a2.292,2.292,0,0,0-1.343-1.153,2.4,2.4,0,0,0-.721-.115,2.32,2.32,0,0,0-1.048.252l-20.34,10.336a2.32,2.32,0,0,0-1.153,1.346,2.313,2.313,0,0,0,.138,1.766l15.623,30.741a2.3,2.3,0,0,0,1.347,1.153,2.29,2.29,0,0,0,1.038.092,4.8,4.8,0,0,1-.367-1.048Z" fill="#0b5d98"/>
    <path id="Path_120" data-name="Path 120" d="M594.938-280.827v-32.317a4.612,4.612,0,0,1,2.428-4.059,4.55,4.55,0,0,1,1.078-.413,4.521,4.521,0,0,1,1.1-.134h10.313l-.236-1.065a2.321,2.321,0,0,0-2.26-1.815,2.4,2.4,0,0,0-.5.056l-7.757,1.723-1.156.256-1.156.259-12.206,2.709a2.3,2.3,0,0,0-1.448,1.016,2.289,2.289,0,0,0-.308,1.746l7.472,33.66a2.35,2.35,0,0,0,.233.619,2.27,2.27,0,0,0,.783.832l.049.03a2.287,2.287,0,0,0,1.7.278l.508-.111,1.438-.321c-.023-.128-.039-.255-.052-.387s-.016-.262-.016-.4v-2.165Z" transform="translate(-25.865 -5.574)" fill="#0b5d98"/>
    <path id="Path_121" data-name="Path 121" d="M652.042-304.84h-22.82a2.253,2.253,0,0,0-1.133.3,2.311,2.311,0,0,0-1.176,2.011v34.483a2.028,2.028,0,0,0,.02.285,2.245,2.245,0,0,0,.429,1.081,2.28,2.28,0,0,0,1.31.881,2.21,2.21,0,0,0,.554.069h22.817a2.318,2.318,0,0,0,2.316-2.316v-34.483A2.317,2.317,0,0,0,652.042-304.84Zm-15.108,15.177c.288-.249.586-.5.9-.767.19-.157.383-.321.58-.488.518-.439,1.071-.9,1.651-1.409l.6-.521.606.521c.58.5,1.13.97,1.651,1.409.088.075.177.151.265.223.514.436,1,.852,1.454,1.251v0A19.828,19.828,0,0,1,646.135-288a5.771,5.771,0,0,1,1.841,3.977,4.652,4.652,0,0,1-.491,2.106s0,0,0,0a4.146,4.146,0,0,1-.9,1.209,3.916,3.916,0,0,1-1.022.694,3.941,3.941,0,0,1-1.7.38,3.945,3.945,0,0,1-.711-.082l.645,1.988h-6.254l.642-1.988a3.911,3.911,0,0,1-.711.082,4.266,4.266,0,0,1-4.18-4.393c0-1.854,1.088-3.292,2.762-4.848C636.33-289.129,636.625-289.391,636.933-289.663Z" transform="translate(-55.546 -16.192)" fill="#ff9e37"/>
  </g>
</svg>
