<svg xmlns="http://www.w3.org/2000/svg" width="48.89" height="47" viewBox="0 0 48.89 47">
  <g id="Group_177" data-name="Group 177" transform="translate(-9.97 -0.005)">
    <g id="Group_177-2" data-name="Group 177" transform="translate(9.97 18.07)">
      <path id="Path_208" data-name="Path 208" d="M34.825,181.46H14.071a4.111,4.111,0,0,0-4.1,4.1v20.735a4.111,4.111,0,0,0,4.1,4.1H34.825a4.055,4.055,0,0,0,2.191-.641,4.1,4.1,0,0,0,1.911-3.46V185.558A4.111,4.111,0,0,0,34.825,181.46Zm-17.974,23.7a2.415,2.415,0,1,1,2.418-2.415A2.419,2.419,0,0,1,16.852,205.156Zm0-13.662a2.415,2.415,0,1,1,2.418-2.414A2.418,2.418,0,0,1,16.852,191.495Zm7.63,6.44a2.416,2.416,0,1,1,2.416-2.418A2.42,2.42,0,0,1,24.482,197.934Zm7.561,7.253a2.415,2.415,0,1,1,2.418-2.414A2.418,2.418,0,0,1,32.043,205.187Zm0-13.662a2.414,2.414,0,1,1,2.418-2.414A2.418,2.418,0,0,1,32.043,191.526Z" transform="translate(-9.97 -181.46)" fill="#ff9e37"/>
    </g>
    <g id="Group_178" data-name="Group 178" transform="translate(28.227 0.005)">
      <path id="Path_209" data-name="Path 209" d="M220.516,3.26,200.013.054a4.113,4.113,0,0,0-4.687,3.414L193.35,16.079h6.6a6.1,6.1,0,0,1,6.093,6.089v8.115l10,1.565a4.116,4.116,0,0,0,4.684-3.417l3.211-20.488A4.111,4.111,0,0,0,220.516,3.26Zm-16.55,5.125a2.42,2.42,0,0,1-2.386,2.041,2.388,2.388,0,0,1-.373-.03,2.418,2.418,0,0,1-2.044-2.384,2.376,2.376,0,0,1,.029-.373,2.416,2.416,0,1,1,4.775.747Zm6.544,7.542a2.425,2.425,0,0,1-2.389,2.039,2.377,2.377,0,0,1-.373-.029,2.414,2.414,0,1,1,2.763-2.01Zm6.346,8.334A2.42,2.42,0,0,1,214.47,26.3a2.5,2.5,0,0,1-.373-.028,2.415,2.415,0,1,1,2.76-2.014Z" transform="translate(-193.35 -0.005)" fill="#0b5d98"/>
    </g>
  </g>
</svg>
