<svg xmlns="http://www.w3.org/2000/svg" xmlns:xlink="http://www.w3.org/1999/xlink" width="1920" height="237" viewBox="0 0 1920 237">
  <defs>
    <linearGradient id="linear-gradient" x1="0.5" y1="-1.266" x2="0.5" y2="1" gradientUnits="objectBoundingBox">
      <stop offset="0" stop-color="#0b5d98"/>
      <stop offset="1" stop-color="#1188d1"/>
    </linearGradient>
    <clipPath id="clip-path">
      <rect id="Rectangle_44" data-name="Rectangle 44" width="1920" height="237" fill="url(#linear-gradient)"/>
    </clipPath>
  </defs>
  <g id="Mask_Group_16" data-name="Mask Group 16" clip-path="url(#clip-path)">
    <g id="Group_89" data-name="Group 89" transform="translate(-308.058 -192.049)">
      <path id="Path_117" data-name="Path 117" d="M1352.821-504.877c-86.1-138.435-236.932-160.61-328.306-146.22s-192.72,7.809-270.89-104.125S534.5-877.662,457.206-787.527c-83.6,97.486-197.38,334.375-45.6,609.843C508.3-2.171,656.041,112.965,784.217,172.8s235.179,82,299.018,22.292,26.688-127.863,13.627-158.469S1063.73-84.271,1210.445-116.6C1385.168-155.1,1449.132-350.029,1352.821-504.877Z" transform="translate(-142.578 906.297)" fill="#fff" opacity="0.04"/>
      <path id="Path_118" data-name="Path 118" d="M702.42,143.652C575.184,48.538,428.387,8.678,313.484,1.693S111.3,8.037,81.915,66.243s19.719,95.249,39.051,112.851,62.491,74.463-37.671,135.954C-35.992,388.272-23.415,539.71,97.1,620.684c107.74,72.394,227.944,47.363,292.115,13.028s142.352-56.888,235.89-.64,202.7,25.819,232.734-56.956C890.319,486.593,902.119,292.931,702.42,143.652Z" transform="translate(533.034 1058.748) rotate(-131)" fill="#fff" opacity="0.04"/>
    </g>
    <g id="Group_90" data-name="Group 90" transform="translate(-44 -145)">
      <path id="Path_76" data-name="Path 76" d="M673.6,118.737C558.047,33.606,421.766,1.9,314.065.127S123.768,14.748,93.674,71.4s14.49,89.824,31.913,105.757,55.574,68.224-41.179,131c-115.225,74.761-109.833,218.37,0,290.327,98.191,64.333,212.233,35.405,274,0S494.625,538.3,580.152,587.863s189.421,15.971,221.163-64.092C835.645,437.181,854.957,252.348,673.6,118.737Z" transform="matrix(-0.875, 0.485, -0.485, -0.875, 2373, 500.461)" fill="#fff" opacity="0.04"/>
      <path id="Path_75" data-name="Path 75" d="M673.6,118.737C558.047,33.606,421.766,1.9,314.065.127S123.768,14.748,93.674,71.4s14.49,89.824,31.913,105.757,55.574,68.224-41.179,131c-115.225,74.761-109.833,218.37,0,290.327,98.191,64.333,212.233,35.405,274,0S494.625,538.3,580.152,587.863s189.421,15.971,221.163-64.092C835.645,437.181,854.957,252.348,673.6,118.737Z" transform="translate(1872.176 39.046) rotate(45)" fill="#fff" opacity="0.04"/>
    </g>
  </g>
</svg>
