<svg xmlns="http://www.w3.org/2000/svg" width="55.333" height="42.258" viewBox="0 0 55.333 42.258">
  <g id="gambling-chips-variant" transform="translate(0 -9.709)">
    <g id="Group_94" data-name="Group 94" transform="translate(0 9.709)">
      <path id="Path_138" data-name="Path 138" d="M48.6,21.849A17.042,17.042,0,1,0,65.641,38.89,17.041,17.041,0,0,0,48.6,21.849Zm2.879,2.576a16.686,16.686,0,0,1,5.406,2.269l-1.454,2a11.09,11.09,0,0,0-4.359-1.951Zm-5.2-.192.337,2.248a10.944,10.944,0,0,0-4.992,2.041l-1.354-1.9A16.877,16.877,0,0,1,46.283,24.233ZM36.245,46.705a16.709,16.709,0,0,1-2.176-5.05l2.421-.364a11.1,11.1,0,0,0,1.493,4.178Zm.118-10.771L34.435,35.6a16.627,16.627,0,0,1,2.188-5.281l1.7,1.234A11.1,11.1,0,0,0,36.363,35.935ZM45.6,53.478a16.645,16.645,0,0,1-5.3-2.2l1.471-2.023a11.1,11.1,0,0,0,4.235,1.923Zm6.077-.38-.312-2.079a13.754,13.754,0,0,0,4.08-1.773l1.41,1.983A13.545,13.545,0,0,1,51.68,53.1ZM48.6,47.988a9.1,9.1,0,1,1,9.1-9.1A9.1,9.1,0,0,1,48.6,47.988ZM60.692,30.237a13.391,13.391,0,0,1,2.413,6l-2.253.338a13.9,13.9,0,0,0-1.98-5.037Zm-1.53,15.174a13.678,13.678,0,0,0,1.821-4.382l2.338.411a13.584,13.584,0,0,1-2.374,5.268Z" transform="translate(-10.308 -13.674)" fill="#ff9e37"/>
      <circle id="Ellipse_19" data-name="Ellipse 19" cx="6.559" cy="6.559" r="6.559" transform="translate(31.732 18.656)" fill="#0b5d98"/>
      <path id="Path_139" data-name="Path 139" d="M20.122,40.96l-.312-2.079.141-.038a18.255,18.255,0,0,1-.446-3.334,9.1,9.1,0,1,1,5.257-13.571,18.427,18.427,0,0,1,2.726-2.275c-.1-.166-.168-.262-.174-.268l1.821-1.3c.1.135.192.277.287.418a18.034,18.034,0,0,1,2.009-.89,17.042,17.042,0,1,0-9.879,25.557,18.138,18.138,0,0,1-1.007-2.3C20.4,40.91,20.266,40.937,20.122,40.96Zm-.2-28.674a16.692,16.692,0,0,1,5.407,2.269l-1.454,2A11.1,11.1,0,0,0,19.513,14.6Zm-5.2-.193.337,2.248a10.944,10.944,0,0,0-4.992,2.041l-1.354-1.9A16.92,16.92,0,0,1,14.725,12.094ZM4.687,34.567a16.719,16.719,0,0,1-2.176-5.05l2.421-.364a11.115,11.115,0,0,0,1.493,4.178ZM4.8,23.795l-1.927-.337a16.646,16.646,0,0,1,2.188-5.281l1.7,1.234A11.124,11.124,0,0,0,4.8,23.795ZM14.045,41.34a16.663,16.663,0,0,1-5.3-2.2l1.471-2.022a11.085,11.085,0,0,0,4.235,1.923Z" transform="translate(0 -9.709)" fill="#0b5d98"/>
      <path id="Path_140" data-name="Path 140" d="M15.568,31.837a6.562,6.562,0,0,0,9.111,6.044,18.156,18.156,0,0,1,3.4-8.781,6.555,6.555,0,0,0-12.514,2.737Z" transform="translate(-5.085 -14.794)" fill="#ff9e37"/>
    </g>
  </g>
</svg>
