<svg xmlns="http://www.w3.org/2000/svg" xmlns:xlink="http://www.w3.org/1999/xlink" width="1920" height="450" viewBox="0 0 1920 450">
  <defs>
    <linearGradient id="linear-gradient" x1="0.5" y1="-0.462" x2="0.5" y2="1" gradientUnits="objectBoundingBox">
      <stop offset="0" stop-color="#0b5d98"/>
      <stop offset="1" stop-color="#1188d1"/>
    </linearGradient>
    <clipPath id="clip-path">
      <rect id="Rectangle_6" data-name="Rectangle 6" width="1920" height="450" fill="url(#linear-gradient)"/>
    </clipPath>
  </defs>
  <g id="Mask_Group_3" data-name="Mask Group 3" clip-path="url(#clip-path)">
    <g id="Group_67" data-name="Group 67">
      <path id="Path_72" data-name="Path 72" d="M1341.375-538.162c-85.13-125.006-234.262-145.03-324.606-132.036s-190.548,7.052-267.837-94.025-216.66-110.563-293.079-29.172C373.2-705.365,260.7-491.455,410.763-242.709,506.375-84.222,652.447,19.744,779.178,73.779s232.528,74.041,295.648,20.13,26.387-115.459,13.473-143.1-32.758-109.17,112.3-138.36C1373.357-222.312,1436.6-398.336,1341.375-538.162Z" transform="translate(-566.721 782.639)" fill="#fff" opacity="0.04"/>
      <path id="Path_73" data-name="Path 73" d="M673.6,118.737C558.047,33.606,421.766,1.9,314.065.127S123.768,14.748,93.674,71.4s14.49,89.824,31.913,105.757,55.574,68.224-41.179,131c-115.225,74.761-109.833,218.37,0,290.327,98.191,64.333,212.233,35.405,274,0S494.625,538.3,580.152,587.863s189.421,15.971,221.163-64.092C835.645,437.181,854.957,252.348,673.6,118.737Z" transform="translate(108.943 860.51) rotate(-131)" fill="#fff" opacity="0.04"/>
    </g>
    <g id="Group_66" data-name="Group 66">
      <path id="Path_76" data-name="Path 76" d="M673.6,118.737C558.047,33.606,421.766,1.9,314.065.127S123.768,14.748,93.674,71.4s14.49,89.824,31.913,105.757,55.574,68.224-41.179,131c-115.225,74.761-109.833,218.37,0,290.327,98.191,64.333,212.233,35.405,274,0S494.625,538.3,580.152,587.863s189.421,15.971,221.163-64.092C835.645,437.181,854.957,252.348,673.6,118.737Z" transform="matrix(-0.875, 0.485, -0.485, -0.875, 2373, 500.461)" fill="#fff" opacity="0.04"/>
      <path id="Path_75" data-name="Path 75" d="M673.6,118.737C558.047,33.606,421.766,1.9,314.065.127S123.768,14.748,93.674,71.4s14.49,89.824,31.913,105.757,55.574,68.224-41.179,131c-115.225,74.761-109.833,218.37,0,290.327,98.191,64.333,212.233,35.405,274,0S494.625,538.3,580.152,587.863s189.421,15.971,221.163-64.092C835.645,437.181,854.957,252.348,673.6,118.737Z" transform="translate(1872.176 39.046) rotate(45)" fill="#fff" opacity="0.04"/>
    </g>
  </g>
</svg>
