<svg xmlns="http://www.w3.org/2000/svg" width="1920" height="450"><defs><linearGradient id="a" x1=".5" y1="-.46" x2=".5" y2="1" gradientUnits="objectBoundingBox"><stop offset="0" stop-color="#0b5d98"/><stop offset="1" stop-color="#1188d1"/></linearGradient><clipPath id="b"><path data-name="Rectangle 6" fill="url(#a)" d="M0 0h1920v450H0z"/></clipPath></defs><g data-name="Mask Group 3" clip-path="url(#b)" fill="#fff"><g data-name="Group 67"><path data-name="Path 72" d="M774.65 244.48c-85.13-125-234.26-145.03-324.6-132.04S259.5 119.5 182.2 18.42-34.45-92.15-110.87-10.76c-82.65 88.03-195.15 301.94-45.09 550.69 95.61 158.49 241.69 262.45 368.42 316.49s232.52 74.04 295.64 20.13 26.4-115.46 13.48-143.1-32.76-109.17 112.3-138.36c172.76-34.76 236-210.79 140.77-350.61Z" opacity=".04"/><path data-name="Path 73" d="M-243.37 274.24C-231.8 417.3-166.33 540.95-97 623.4S38.87 757.43 101.37 742.97s58.29-69.86 58.88-93.47 15.03-86.7 125.89-54.86c132.01 37.91 236.86-60.37 219.1-190.47-15.86-116.32-112.5-183.4-179.75-206.8S190.7 134.07 171.99 37 59.78-116.44-21.47-87.87c-87.87 30.9-240.04 137.58-221.9 362.1Z" opacity=".04"/></g><g data-name="Group 66"><path data-name="Path 76" d="M1726.01 723.26c142.4 18.45 277.02-19.9 372.12-70.59s159.42-105.09 158.28-169.25-56.25-71.57-79.22-77.06-81.72-32.74-27.5-134.6c64.56-121.3-9.8-244.34-140.81-254.03-117.12-8.67-202.88 71.95-239.75 132.89s-90 118.72-188.88 116.83-173.49 77.9-162.43 163.35c11.96 92.42 84.7 263.51 308.2 292.46Z" opacity=".04"/><path data-name="Path 75" d="M2264.52 599.31c-21.5-141.9-95.45-260.69-170.36-338.1S1949.26 137 1887.93 155.77s-53.27 73.76-52.22 97.35-8.94 87.54-121.75 63.51c-134.34-28.61-232.07 76.75-205.3 205.3 23.95 114.92 125.05 175.1 193.76 193.74s138.87 53.76 164.3 149.29 122.65 145.23 201.7 111.06c85.51-36.95 229.86-154 196.1-376.7Z" opacity=".04"/></g></g></svg>