<svg xmlns="http://www.w3.org/2000/svg" width="118.961" height="44.03" viewBox="0 0 118.961 44.03"><defs><style>.a{fill:#fff;}.b{fill:#ff9e37;}</style></defs><g transform="translate(494 6)"><g transform="translate(-494 17.463)"><g transform="translate(0 0)"><g transform="translate(0 0.45)"><path class="a" d="M585.168,366.533l-1.489,1.658v4.861H577.16V353.384h6.518v7.137l6.462-7.137h7.221l-7.867,8.654,8.261,11.014h-7.671Z" transform="translate(-577.16 -353.384)"/></g><g transform="translate(20.005)"><path class="a" d="M724.815,369.433a10.083,10.083,0,0,1,0-17.926,12.979,12.979,0,0,1,11.407,0,10.082,10.082,0,0,1,0,17.926,12.975,12.975,0,0,1-11.407,0Zm7.937-4.65a4.326,4.326,0,0,0,1.588-1.714,6.018,6.018,0,0,0,0-5.2,4.33,4.33,0,0,0-1.588-1.714,4.431,4.431,0,0,0-4.467,0,4.33,4.33,0,0,0-1.588,1.714,6.023,6.023,0,0,0,0,5.2,4.325,4.325,0,0,0,1.588,1.714,4.433,4.433,0,0,0,4.467,0Z" transform="translate(-719.42 -350.187)"/></g><g transform="translate(44.618 0.45)"><path class="a" d="M913.831,353.384v19.668H908.38l-7.474-8.935v8.935h-6.462V353.384H899.9l7.474,8.935v-8.935Z" transform="translate(-894.444 -353.384)"/></g><g transform="translate(67.207 0.45)"><path class="a" d="M1055.082,353.384h6.631v19.668h-6.631Z" transform="translate(-1055.082 -353.384)"/></g><g transform="translate(77.041 0.45)"><path class="a" d="M1144.4,353.384v19.668h-5.451l-7.474-8.935v8.935h-6.462V353.384h5.451l7.474,8.935v-8.935Z" transform="translate(-1125.011 -353.384)"/></g><g transform="translate(98.843)"><path class="a" d="M1293.851,359.937h5.76v8.316a13.376,13.376,0,0,1-4.046,1.854,16.714,16.714,0,0,1-4.524.646,12.011,12.011,0,0,1-5.647-1.307,9.764,9.764,0,0,1-3.92-3.653,10.7,10.7,0,0,1,0-10.649,9.7,9.7,0,0,1,3.962-3.653,12.387,12.387,0,0,1,5.746-1.307,13.188,13.188,0,0,1,5.184.969,9.736,9.736,0,0,1,3.807,2.824l-4.242,3.737a5.638,5.638,0,0,0-4.411-2.163,4.651,4.651,0,0,0-3.484,1.321,4.921,4.921,0,0,0-1.293,3.6,4.972,4.972,0,0,0,1.278,3.568,4.483,4.483,0,0,0,3.414,1.349,6.242,6.242,0,0,0,2.417-.478Z" transform="translate(-1280.055 -350.187)"/></g></g></g><g transform="translate(-493.734 6.247)"><g transform="translate(0 0)"><path class="a" d="M581,277.49a3.637,3.637,0,0,1-1.429-1.351,3.884,3.884,0,0,1,0-3.87A3.641,3.641,0,0,1,581,270.918a4.519,4.519,0,0,1,4.095,0,3.724,3.724,0,0,1,0,6.572,4.519,4.519,0,0,1-4.095,0Zm3.218-1.246a2.135,2.135,0,0,0,.819-.829,2.613,2.613,0,0,0,0-2.42,2.134,2.134,0,0,0-.819-.829,2.444,2.444,0,0,0-2.337,0,2.133,2.133,0,0,0-.819.829,2.612,2.612,0,0,0,0,2.42,2.134,2.134,0,0,0,.819.829,2.445,2.445,0,0,0,2.337,0Z" transform="translate(-579.052 -270.428)"/><path class="a" d="M651.623,271.319v7.3h-1.387l-3.641-4.434v4.434h-1.669v-7.3h1.4l3.63,4.433v-4.433Z" transform="translate(-635.663 -271.194)"/><path class="a" d="M704.865,271.319h1.69v5.925h3.662v1.377h-5.352Z" transform="translate(-687.173 -271.194)"/><path class="a" d="M749.671,271.319h1.69v7.3h-1.69Z" transform="translate(-725.678 -271.194)"/><path class="a" d="M780.7,271.319v7.3h-1.387l-3.641-4.434v4.434H774v-7.3h1.4l3.63,4.433v-4.433Z" transform="translate(-746.588 -271.194)"/><path class="a" d="M839.6,277.265v1.356h-5.654v-7.3h5.519v1.356h-3.839v1.586h3.39v1.314h-3.39v1.69Z" transform="translate(-798.098 -271.194)"/></g></g><g transform="translate(-417.152 6.29)"><g transform="translate(0 0)"><path class="a" d="M1125.573,277.8a3.621,3.621,0,0,1-1.419-1.346,3.923,3.923,0,0,1,0-3.891,3.62,3.62,0,0,1,1.419-1.346,4.215,4.215,0,0,1,2.029-.485,4.258,4.258,0,0,1,1.716.334,3.437,3.437,0,0,1,1.288.96l-1.085,1a2.333,2.333,0,0,0-1.836-.855,2.439,2.439,0,0,0-1.21.3,2.114,2.114,0,0,0-.829.829,2.61,2.61,0,0,0,0,2.42,2.114,2.114,0,0,0,.829.829,2.44,2.44,0,0,0,1.21.3,2.321,2.321,0,0,0,1.836-.866l1.085,1a3.381,3.381,0,0,1-1.294.97,4.3,4.3,0,0,1-1.721.334A4.193,4.193,0,0,1,1125.573,277.8Z" transform="translate(-1123.638 -270.733)"/><path class="a" d="M1179.183,277.361h-3.39l-.647,1.565h-1.732l3.255-7.3h1.669l3.265,7.3h-1.774Zm-.532-1.283-1.158-2.8-1.158,2.8Z" transform="translate(-1166.415 -271.498)"/><path class="a" d="M1234.281,278.051a3.925,3.925,0,0,1-1.3-.61l.574-1.273a3.887,3.887,0,0,0,1.116.553,4.182,4.182,0,0,0,1.293.209,2.068,2.068,0,0,0,1.064-.214.646.646,0,0,0,.344-.568.542.542,0,0,0-.2-.433,1.535,1.535,0,0,0-.521-.276q-.319-.1-.861-.23a11.873,11.873,0,0,1-1.367-.4,2.22,2.22,0,0,1-.913-.636,1.716,1.716,0,0,1-.381-1.168,2.033,2.033,0,0,1,.344-1.153,2.319,2.319,0,0,1,1.038-.819,4.24,4.24,0,0,1,1.7-.3,5.61,5.61,0,0,1,1.366.167,4.039,4.039,0,0,1,1.169.48l-.522,1.283a4.075,4.075,0,0,0-2.024-.574,1.9,1.9,0,0,0-1.049.23.7.7,0,0,0-.339.605.592.592,0,0,0,.392.558,6.135,6.135,0,0,0,1.194.36,11.92,11.92,0,0,1,1.366.4,2.266,2.266,0,0,1,.913.626,1.679,1.679,0,0,1,.381,1.158,2,2,0,0,1-.349,1.142,2.351,2.351,0,0,1-1.048.819,4.277,4.277,0,0,1-1.7.3A5.974,5.974,0,0,1,1234.281,278.051Z" transform="translate(-1217.606 -270.733)"/><path class="a" d="M1284.39,271.623h1.689v7.3h-1.689Z" transform="translate(-1261.785 -271.498)"/><path class="a" d="M1315.418,271.623v7.3h-1.387l-3.641-4.433v4.433h-1.669v-7.3h1.4l3.63,4.434v-4.434Z" transform="translate(-1282.694 -271.498)"/><path class="a" d="M1367.342,277.8a3.638,3.638,0,0,1-1.429-1.351,3.886,3.886,0,0,1,0-3.87,3.639,3.639,0,0,1,1.429-1.351,4.519,4.519,0,0,1,4.094,0,3.724,3.724,0,0,1,0,6.572,4.518,4.518,0,0,1-4.094,0Zm3.218-1.247a2.135,2.135,0,0,0,.818-.829,2.61,2.61,0,0,0,0-2.42,2.135,2.135,0,0,0-.818-.829,2.445,2.445,0,0,0-2.337,0,2.132,2.132,0,0,0-.819.829,2.613,2.613,0,0,0,0,2.42,2.133,2.133,0,0,0,.819.829,2.444,2.444,0,0,0,2.337,0Z" transform="translate(-1331.399 -270.733)"/></g></g><g transform="translate(-450.655 -6)"><g transform="translate(10.471 0)"><path class="b" d="M970.079,192.862a2.589,2.589,0,0,1-3.127.4,9.272,9.272,0,0,1-.872-.579c-.066-.045-.131-.1-.219-.167l-.34-.308-.34.308-.169.132c-.017.013-.034.024-.051.035a9.108,9.108,0,0,1-.872.579,2.59,2.59,0,0,1-3.127-.4,3.029,3.029,0,0,1-1.1-2.509,2.968,2.968,0,0,1,1.118-2.274c.529-.432,1.049-.872,1.586-1.3a9.365,9.365,0,0,0,2.957-3.447,9.368,9.368,0,0,0,2.959,3.447c.536.426,1.057.866,1.586,1.3a2.971,2.971,0,0,1,1.117,2.274A3.03,3.03,0,0,1,970.079,192.862Z" transform="translate(-959.855 -183.335)"/></g><g transform="translate(0 0.997)"><g transform="translate(5.653 17.142)"><path class="b" d="M925.6,312.328l.283.838a1.026,1.026,0,0,0,.972.7H945.3a1.026,1.026,0,0,0,.972-.7l.283-.838H925.6Z" transform="translate(-925.596 -312.328)"/></g><path class="b" d="M910.429,197.327c.782,3.075,3.735,1.26,3.735,1.26a6.4,6.4,0,0,1-1.588,2.784,4.3,4.3,0,0,1-3.029,1.214h-3.379a4.275,4.275,0,0,1-2.621-.869,4.572,4.572,0,0,1-1.374-2.877l.16-.523-.8-.716-.8.716.16.523a4.57,4.57,0,0,1-1.374,2.877,4.274,4.274,0,0,1-2.621.869h-3.379a4.3,4.3,0,0,1-3.029-1.214,6.4,6.4,0,0,1-1.588-2.784s2.953,1.815,3.735-1.26c.835-3.286-3.845-3.527-7.238-6.9l5.131,15.2a1.026,1.026,0,0,0,.972.7h8.154a1.026,1.026,0,0,0,.714-.289l1.163-1.128,1.164,1.128a1.026,1.026,0,0,0,.714.289h8.154a1.026,1.026,0,0,0,.972-.7l5.13-15.2C914.273,193.8,909.593,194.041,910.429,197.327Z" transform="translate(-885.396 -190.425)"/></g></g></g></svg>