<svg xmlns="http://www.w3.org/2000/svg" width="67.911" height="44.587" viewBox="0 0 67.911 44.587">
  <g id="Group_176" data-name="Group 176" transform="translate(-378.111 -429.992)">
    <g id="Group_174" data-name="Group 174" transform="translate(378.111 429.992)">
      <g id="Group_173" data-name="Group 173" transform="translate(0 0)">
        <path id="Path_201" data-name="Path 201" d="M425.576,640.649h0l-1.143-.968q.264-.383.49-.789h-1.2a4.8,4.8,0,0,1-1.5-.248,6.564,6.564,0,0,1-.7.708,6.484,6.484,0,0,1-10.627-6.161,13.58,13.58,0,0,1-5.278-2.2,12.146,12.146,0,0,0,22.949,7.9h-1.8A9.615,9.615,0,0,1,425.576,640.649Zm-17.46-1.293a11.84,11.84,0,0,1-1.3-3.858l1.491-.136a7.917,7.917,0,0,0,1,3.269Zm6.182,5.106a11.917,11.917,0,0,1-3.537-1.687l1.128-1.332a7.905,7.905,0,0,0,2.761,1.54Zm4.321.549-.161-1.775a7.887,7.887,0,0,0,3.174-.956l.862,1.425A11.866,11.866,0,0,1,418.619,645.012Z" transform="translate(-401.222 -602.033)" fill="#0b5d98"/>
        <path id="Path_202" data-name="Path 202" d="M457.773,640.889c-.232,0-.463-.005-.692-.018a4.674,4.674,0,0,0,7.627,4.59c.1-.085.191-.173.279-.265-.09-.077-.178-.159-.263-.244a4.781,4.781,0,0,1-1.41-3.373v-1.862A13.6,13.6,0,0,1,457.773,640.889Z" transform="translate(-445.596 -609.502)" fill="#0b5d98"/>
        <path id="Path_203" data-name="Path 203" d="M505.17,434.14h0a12.144,12.144,0,0,0-18.8,15.351v-.041a4.76,4.76,0,0,1,.746-2.565l-.22.134a11.843,11.843,0,0,1-1.3-3.858l1.491-.136a7.875,7.875,0,0,0,.818,2.918,4.786,4.786,0,0,1,2.21-1.169,6.485,6.485,0,1,1,11.9-.116h2.5c.018-.06.036-.12.053-.18l.755.18h2.594A12.128,12.128,0,0,0,505.17,434.14Zm-17.746,5.709-1.617-.383a12,12,0,0,1,1.748-3.628q.17-.24.353-.473l1.235,1.048c-.084.1-.166.2-.243.3A7.791,7.791,0,0,0,487.424,439.849Zm4.232-5.387-.869-1.434a11.891,11.891,0,0,1,3.963-1.32l.159,1.754A7.908,7.908,0,0,0,491.656,434.462Zm9.859.683a9.91,9.91,0,0,0-3.425-1.772l.365-1.552a9.531,9.531,0,0,1,4.11,2.086Zm3.24,5.532a9.726,9.726,0,0,0-1.08-3.2l1.447-.876a9.668,9.668,0,0,1,1.2,3.939Z" transform="translate(-468.647 -429.992)" fill="#0b5d98"/>
        <path id="Path_204" data-name="Path 204" d="M544.345,489.034a4.675,4.675,0,1,0-7.873,0h7.873Z" transform="translate(-513.025 -474.369)" fill="#0b5d98"/>
        <path id="Path_205" data-name="Path 205" d="M384.417,491.55a12.1,12.1,0,0,0,1.45.673q.466.18.954.325a12.2,12.2,0,0,0,3.415.5,12.163,12.163,0,0,0,5.594-1.353v-7.112c-.047-.046-.09-.092-.135-.139a6.449,6.449,0,0,1-2.684,2.334q-.271.127-.552.228a6.474,6.474,0,0,1-5.737-.669c-.076-.05-.151-.1-.226-.155a6.484,6.484,0,0,1,5.65-11.483,13.128,13.128,0,0,1,.394-2.5c-.131-.042-.213-.062-.219-.062l.366-1.553c.117.026.233.059.351.09a12.892,12.892,0,0,1,.66-1.42,12.144,12.144,0,0,0-9.28,22.3Zm9.309-2.412a7.847,7.847,0,0,0,.915-.43l.281.464.58.959a11.771,11.771,0,0,1-1.938.841h0a11.539,11.539,0,0,1-1.267.344q-.332.071-.669.123l-.157-1.739.1-.046A7.849,7.849,0,0,0,393.726,489.138Zm-4.742-18.666.159,1.755a7.918,7.918,0,0,0-3.256,1l-.867-1.432A11.9,11.9,0,0,1,388.984,470.472Zm-4.088,17.4a7.922,7.922,0,0,0,2.761,1.54l-.352,1.478q-.328-.094-.65-.208a11.889,11.889,0,0,1-2.846-1.452q.1-.156.2-.309Zm-3.776-2.088a11.862,11.862,0,0,1-1.3-3.858l1.491-.136a7.937,7.937,0,0,0,1.006,3.272Zm.537-7.17-1.617-.384a12.056,12.056,0,0,1,2.1-4.1l1.234,1.047A7.808,7.808,0,0,0,381.656,478.614Z" transform="translate(-378.111 -463.169)" fill="#0b5d98"/>
        <path id="Path_206" data-name="Path 206" d="M430.4,523.4a4.673,4.673,0,0,0,.749,4.994l0,0a4.676,4.676,0,0,0,7.426-.513,4.871,4.871,0,0,0,.3-.521,12.923,12.923,0,0,1-2.3-6.305A4.672,4.672,0,0,0,430.4,523.4Z" transform="translate(-422.518 -507.582)" fill="#0b5d98"/>
      </g>
    </g>
    <g id="_025---Live-Recording" data-name="025---Live-Recording" transform="translate(397.258 432.631)">
      <g id="Group_175" data-name="Group 175" transform="translate(0 0)">
        <path id="Path_207" data-name="Path 207" d="M546,546.838a.851.851,0,0,0-.712-.16l-.083.015c-.054.009-.109.018-.165.025l-.083.01c-.055,0-.109.01-.165.012s-.109,0-.165,0a3.368,3.368,0,0,1-.813-.1c-.053-.013-.1-.028-.157-.043s-.1-.033-.155-.051-.1-.038-.152-.058l-.107-.047-.079-.037c-.037-.018-.074-.036-.11-.056s-.1-.052-.143-.08-.094-.058-.14-.089-.09-.062-.135-.094-.1-.079-.154-.122c-.035-.029-.07-.058-.1-.089s-.082-.075-.122-.115a3.35,3.35,0,0,1-.916-3.03.845.845,0,0,0-.813-1.035H514.369c-.088,0-.174,0-.261.01a3.364,3.364,0,0,0-3.1,3.354v12.611a3.388,3.388,0,0,0,2.679,3.29,3.441,3.441,0,0,0,.684.073h5.3c8.416,0,13.859.014,17.407.014,6.965,0,6.622-.041,7.12-.259a3.412,3.412,0,0,0,2.128-3.119V547.493A.847.847,0,0,0,546,546.838Zm-25.975,10.573h0a.841.841,0,0,1-.609.259h-4.2a.84.84,0,0,1-.841-.84V545.9a.841.841,0,1,1,1.681,0v10.089h3.363a.841.841,0,0,1,.609,1.421Zm3.6-.58a.841.841,0,0,1-1.681,0V545.9a.841.841,0,1,1,1.681,0Zm9.228-10.742-2.522,10.93a.839.839,0,0,1-.82.651h-.84a.839.839,0,0,1-.82-.651L525.76,548l-.44-1.907a.841.841,0,0,1,1.639-.378l.272,1.182,1.851,8.02,2.123-9.2a.841.841,0,0,1,1.639.378Zm6.748,4.856a.841.841,0,0,1,0,1.682h-3.364v3.363h3.364a.84.84,0,0,1,0,1.681h-4.2a.84.84,0,0,1-.841-.84V545.9a.841.841,0,0,1,.841-.841h4.2a.841.841,0,0,1,0,1.682h-3.364v4.2Z" transform="translate(-511.006 -528.242)" fill="#ff9e37"/>
        <path id="Shape" d="M664.334,455.828a11.765,11.765,0,1,1,16.839,16.357,1.682,1.682,0,1,0,2.234,2.507,15.124,15.124,0,1,0-21.643-21.03,1.682,1.682,0,1,0,2.57,2.166Z" transform="translate(-639.668 -448.309)" fill="#ff9e37"/>
        <path id="Shape-2" data-name="Shape" d="M708.443,499.307a5.045,5.045,0,0,1,7.007,7.084,1.644,1.644,0,0,0-.076,1.8,1.682,1.682,0,0,0,2.793.178,8.4,8.4,0,0,0-11.675-11.8,1.672,1.672,0,0,0,.272,2.836,1.63,1.63,0,0,0,1.679-.1Z" transform="translate(-677.759 -488.267)" fill="#ff9e37"/>
        <circle id="Oval" cx="1.682" cy="1.682" r="1.682" transform="translate(31.95 13.455)" fill="#ff9e37"/>
      </g>
    </g>
  </g>
</svg>
