<svg xmlns="http://www.w3.org/2000/svg" width="47.075" height="47.075" viewBox="0 0 47.075 47.075">
  <g id="Group_169" data-name="Group 169" transform="translate(13497.861 12589.075)">
    <path id="Path_96" data-name="Path 96" d="M88.655,32.836a19.166,19.166,0,0,1,3.766-2.547l-1.76-4.146a23.618,23.618,0,0,0-5.192,3.508Z" transform="translate(-13575.457 -12612.81)" fill="#ff9e37"/>
    <path id="Path_97" data-name="Path 97" d="M171.2,5.471A18.962,18.962,0,0,1,175.99,4.5V0a23.475,23.475,0,0,0-6.552,1.327Z" transform="translate(-13651.69 -12589.075)" fill="#ff9e37"/>
    <path id="Path_98" data-name="Path 98" d="M270.569,4.505a18.962,18.962,0,0,1,4.787.975l1.759-4.144A23.473,23.473,0,0,0,270.569.008Z" transform="translate(-13743.506 -12589.082)" fill="#ff9e37"/>
    <path id="Path_99" data-name="Path 99" d="M28.354,92.686a19.158,19.158,0,0,1,2.7-4.07l-3.186-3.186A23.612,23.612,0,0,0,24.177,91Z" transform="translate(-13519.812 -12666.637)" fill="#ff9e37"/>
    <path id="Path_100" data-name="Path 100" d="M350.135,30.311a19.174,19.174,0,0,1,3.769,2.551l3.186-3.186a23.621,23.621,0,0,0-5.194-3.511Z" transform="translate(-13815.742 -12612.83)" fill="#ff9e37"/>
    <path id="Path_101" data-name="Path 101" d="M232.391,228.8a2.532,2.532,0,1,0,0,3.581A2.515,2.515,0,0,0,232.391,228.8Z" transform="translate(-13704.922 -12796.127)" fill="#ff9e37"/>
    <path id="Path_102" data-name="Path 102" d="M94.6,78.279A16.327,16.327,0,1,0,110.93,94.606,16.345,16.345,0,0,0,94.6,78.279ZM99.2,97.249l3.776,3.776.944-.944,1.954,1.954-3.842,3.842-1.954-1.954.944-.944L97.241,99.2a5.3,5.3,0,0,1-5.28-.005l-3.777,3.777.944.944-1.954,1.954-3.842-3.842,1.954-1.954.944.944,3.781-3.781a5.314,5.314,0,0,1,.006-5.271l-3.782-3.782-.944.944-1.954-1.954,3.842-3.842,1.954,1.954-.944.944,3.782,3.782a5.3,5.3,0,0,1,5.273,0l3.779-3.779-.944-.944,1.954-1.954,3.842,3.842-1.954,1.954-.944-.944-3.78,3.78A5.314,5.314,0,0,1,99.2,97.249Z" transform="translate(-13568.928 -12660.144)" fill="#0b5d98"/>
    <path id="Path_103" data-name="Path 103" d="M415.437,85.5l-3.186,3.186a19.161,19.161,0,0,1,2.7,4.065l4.177-1.689A23.612,23.612,0,0,0,415.437,85.5Z" transform="translate(-13872.137 -12666.701)" fill="#ff9e37"/>
    <path id="Path_104" data-name="Path 104" d="M4.5,179.827a18.967,18.967,0,0,1,.868-4.47L1.19,173.669A23.486,23.486,0,0,0,0,179.827Z" transform="translate(-13497.861 -12746.746)" fill="#ff9e37"/>
    <path id="Path_105" data-name="Path 105" d="M452.619,270.572a18.959,18.959,0,0,1-.972,4.781l4.144,1.758a23.47,23.47,0,0,0,1.325-6.539Z" transform="translate(-13907.903 -12834.723)" fill="#ff9e37"/>
    <path id="Path_106" data-name="Path 106" d="M414.741,350.068a19.158,19.158,0,0,1-2.552,3.772l3.186,3.186a23.622,23.622,0,0,0,3.513-5.2Z" transform="translate(-13872.08 -12906.896)" fill="#ff9e37"/>
    <path id="Path_107" data-name="Path 107" d="M350.927,412.229a19.153,19.153,0,0,1-4.063,2.7l1.689,4.177a23.619,23.619,0,0,0,5.56-3.687Z" transform="translate(-13812.772 -12963.33)" fill="#ff9e37"/>
    <path id="Path_108" data-name="Path 108" d="M452.784,175.377a18.965,18.965,0,0,1,.868,4.473h4.5a23.5,23.5,0,0,0-1.19-6.161Z" transform="translate(-13908.936 -12746.765)" fill="#ff9e37"/>
    <path id="Path_109" data-name="Path 109" d="M274.986,452.771a18.972,18.972,0,0,1-4.472.869v4.5a23.493,23.493,0,0,0,6.16-1.191Z" transform="translate(-13743.456 -13000.138)" fill="#ff9e37"/>
    <path id="Path_110" data-name="Path 110" d="M32.828,353.856a19.167,19.167,0,0,1-2.55-3.769l-4.147,1.759a23.62,23.62,0,0,0,3.511,5.2Z" transform="translate(-13521.585 -12906.913)" fill="#ff9e37"/>
    <path id="Path_111" data-name="Path 111" d="M179.841,453.655a18.958,18.958,0,0,1-4.468-.868l-1.688,4.176a23.494,23.494,0,0,0,6.156,1.19Z" transform="translate(-13655.547 -13000.152)" fill="#ff9e37"/>
    <path id="Path_112" data-name="Path 112" d="M5.471,275.3a18.96,18.96,0,0,1-.973-4.787H0a23.475,23.475,0,0,0,1.326,6.546Z" transform="translate(-13497.861 -12834.672)" fill="#ff9e37"/>
    <path id="Path_113" data-name="Path 113" d="M92.712,414.917a19.156,19.156,0,0,1-4.069-2.7L85.458,415.4a23.605,23.605,0,0,0,5.566,3.69Z" transform="translate(-13575.447 -12963.32)" fill="#ff9e37"/>
  </g>
</svg>
