<svg xmlns="http://www.w3.org/2000/svg" width="16.909" height="16.199" viewBox="0 0 16.909 16.199">
  <path id="star" d="M16.529,24.448a1.213,1.213,0,0,0-.672-2.068l-4.094-.595a.535.535,0,0,1-.4-.293l-1.83-3.709a1.213,1.213,0,0,0-2.175,0l-1.831,3.71a.535.535,0,0,1-.4.293l-4.094.595a1.213,1.213,0,0,0-.672,2.068l2.962,2.887a.536.536,0,0,1,.154.474l-.7,4.077a1.187,1.187,0,0,0,.264.983,1.225,1.225,0,0,0,1.495.295L8.192,31.24a.548.548,0,0,1,.5,0l3.662,1.925a1.2,1.2,0,0,0,.564.141,1.216,1.216,0,0,0,.93-.436,1.187,1.187,0,0,0,.264-.983l-.7-4.077a.536.536,0,0,1,.154-.474Z" transform="translate(0.013 -17.107)" fill="#ff9e37"/>
</svg>
