<svg xmlns="http://www.w3.org/2000/svg" width="20.006" height="20" viewBox="0 0 20.006 20">
  <g id="Group_114" data-name="Group 114" transform="translate(-975 -214.356)">
    <path id="Path_69" data-name="Path 69" d="M0,105.232H20v.4q0,4.528,0,9.057a2.16,2.16,0,0,1-2.345,2.325q-7.652,0-15.3,0A2.166,2.166,0,0,1,0,114.653q0-4.509,0-9.018v-.4M11.726,111c.863-1.384.793-2.565-.19-3.412a2.33,2.33,0,0,0-3.041-.019A2.3,2.3,0,0,0,7.689,109a2.423,2.423,0,0,0,.618,1.994,3.561,3.561,0,0,0-1.622,3.542c.028.43.21.674.592.676q2.73.014,5.461,0a.519.519,0,0,0,.566-.527,8.126,8.126,0,0,0-.074-1.551,3.213,3.213,0,0,0-1.5-2.131" transform="translate(974.996 117.345)" fill="#0f7bc0"/>
    <path id="Path_70" data-name="Path 70" d="M13.251,2.312a3.533,3.533,0,0,1,.112-.657A2.331,2.331,0,0,1,15.463,0a2.343,2.343,0,0,1,2.111,1.644c.082.216.139.442.189.6a7.715,7.715,0,0,1,1.164.4,1.929,1.929,0,0,1,1.057,1.672c.041.882.01,1.767.01,2.68H0V5.626c0-.338,0-.677,0-1.015A2.15,2.15,0,0,1,2.129,2.343c.064,0,.127-.022.191-.033a.79.79,0,0,0-.109.238,3.3,3.3,0,0,0,.768,2.575,2.038,2.038,0,0,0,1.458.732A.583.583,0,0,0,5.1,5.343a.568.568,0,0,0-.565-.65A1.1,1.1,0,0,1,3.673,4.1a2.393,2.393,0,0,1-.249-1.769H5.665a5.64,5.64,0,0,0-.373-.718.87.87,0,0,0-1.516,0,4.236,4.236,0,0,0-.339.732L2.314,2.312a3.519,3.519,0,0,1,.112-.655A2.325,2.325,0,0,1,4.555,0,2.349,2.349,0,0,1,6.643,1.663c.077.205.13.42.2.647h.945a.788.788,0,0,0-.109.238,3.3,3.3,0,0,0,.768,2.575A2.038,2.038,0,0,0,9.9,5.854a.583.583,0,0,0,.666-.511.568.568,0,0,0-.565-.65A1.1,1.1,0,0,1,9.141,4.1a2.393,2.393,0,0,1-.249-1.769h2.241a5.647,5.647,0,0,0-.373-.718.87.87,0,0,0-1.517,0,4.236,4.236,0,0,0-.339.732L7.783,2.312a3.525,3.525,0,0,1,.112-.655A2.325,2.325,0,0,1,10.023,0a2.349,2.349,0,0,1,2.089,1.663c.077.205.13.42.2.647h.945a.792.792,0,0,0-.109.238,3.3,3.3,0,0,0,.768,2.575,2.038,2.038,0,0,0,1.458.732.583.583,0,0,0,.666-.511.568.568,0,0,0-.565-.65A1.1,1.1,0,0,1,14.61,4.1a2.393,2.393,0,0,1-.249-1.769H16.6a5.64,5.64,0,0,0-.373-.718.87.87,0,0,0-1.517,0,4.248,4.248,0,0,0-.339.732l-1.122-.036" transform="translate(975 214.356)" fill="#0f7bc0"/>
    <path id="Path_71" data-name="Path 71" d="M104.949,190.162h-4.27a2.138,2.138,0,0,1,3.19-2.045,2.1,2.1,0,0,1,1.08,2.045" transform="translate(882.192 41.215)" fill="#0f7bc0"/>
    <path id="Path_72" data-name="Path 72" d="M114.189,145.353a1.171,1.171,0,1,1,1.179-1.154,1.175,1.175,0,0,1-1.179,1.154" transform="translate(870.803 82.518)" fill="#0f7bc0"/>
  </g>
</svg>
