<svg xmlns="http://www.w3.org/2000/svg" width="29" height="29" viewBox="0 0 29 29">
  <g id="Group_122" data-name="Group 122" transform="translate(0.238 0.238)">
    <g id="Ellipse_9" data-name="Ellipse 9" transform="translate(-0.238 -0.238)" fill="none" stroke="#0f7bc0" stroke-width="2">
      <circle cx="14.5" cy="14.5" r="14.5" stroke="none"/>
      <circle cx="14.5" cy="14.5" r="13.5" fill="none"/>
    </g>
    <path id="Subtraction_2" data-name="Subtraction 2" d="M11.271,22.544A11.272,11.272,0,0,1,3.3,3.3a11.272,11.272,0,1,1,15.94,15.941A11.2,11.2,0,0,1,11.271,22.544Zm2.137-11.877c1.244,0,1.244,1.18,1.244,2.042v3.752H17.04l0-4.234c0-1.9-.348-3.666-2.868-3.666A2.526,2.526,0,0,0,11.912,9.8h-.034V8.753H9.583v7.707h2.391V12.644C11.974,11.666,12.144,10.667,13.408,10.667ZM5.69,8.753v7.707H8.083V8.753Zm1.2-3.837A1.393,1.393,0,1,0,8.271,6.3,1.388,1.388,0,0,0,6.885,4.916Z" transform="translate(3.109 3.109)" fill="#0f7bc0"/>
  </g>
</svg>
