<svg xmlns="http://www.w3.org/2000/svg" width="20" height="20" viewBox="0 0 20 20">
  <path id="Path_73" data-name="Path 73" d="M321.111,25.828h-4.8a.529.529,0,0,1-.529-.53V20.359a.529.529,0,0,0-.529-.53h-3.045a.529.529,0,0,0-.529.53v4.929a.529.529,0,0,1-.529.53H306.36a.529.529,0,0,1-.529-.53V15.7a.529.529,0,0,0-.872-.4l-.038.032a.528.528,0,0,1-.743-.056l-.326-.378a.53.53,0,0,1,.054-.748l9.471-8.188a.529.529,0,0,1,.691,0l9.471,8.187a.531.531,0,0,1,.055.747l-.326.378a.528.528,0,0,1-.744.057l-.013-.011a.529.529,0,0,0-.872.4V25.3a.529.529,0,0,1-.529.53m-7.424-10.622a2.257,2.257,0,1,0-2.216-2.292,2.234,2.234,0,0,0,2.216,2.292" transform="translate(-303.722 -5.828)" fill="#0f7bc0"/>
</svg>
