<svg xmlns="http://www.w3.org/2000/svg" width="29" height="29" viewBox="0 0 29 29">
  <g id="Group_121" data-name="Group 121" transform="translate(-0.071 0.238)">
    <g id="Ellipse_7" data-name="Ellipse 7" transform="translate(0.071 -0.238)" fill="none" stroke="#0f7bc0" stroke-width="2">
      <circle cx="14.5" cy="14.5" r="14.5" stroke="none"/>
      <circle cx="14.5" cy="14.5" r="13.5" fill="none"/>
    </g>
    <path id="Subtraction_1" data-name="Subtraction 1" d="M11.271,22.544A11.272,11.272,0,0,1,3.3,3.3a11.272,11.272,0,1,1,15.94,15.941A11.2,11.2,0,0,1,11.271,22.544ZM3.879,15.915h0a8.587,8.587,0,0,0,4.653,1.36,8.539,8.539,0,0,0,8.622-8.622c0-.129,0-.263-.01-.395a6.479,6.479,0,0,0,1.52-1.566,6.072,6.072,0,0,1-1.746.47,3.023,3.023,0,0,0,1.333-1.671,5.981,5.981,0,0,1-1.923.732A3.033,3.033,0,0,0,11.084,8.3a3.46,3.46,0,0,0,.075.694A8.627,8.627,0,0,1,4.911,5.821,2.993,2.993,0,0,0,4.5,7.351,3.028,3.028,0,0,0,5.849,9.874a3.06,3.06,0,0,1-1.37-.384v.037A3.045,3.045,0,0,0,6.909,12.5a3.2,3.2,0,0,1-.8.1,3.751,3.751,0,0,1-.573-.047,3.033,3.033,0,0,0,2.833,2.1,6.032,6.032,0,0,1-3.761,1.295A6.136,6.136,0,0,1,3.879,15.915Z" transform="translate(3.109 3.109)" fill="#0f7bc0"/>
  </g>
</svg>
